solid CATIA STL
  facet normal  0.000000e+000  0.000000e+000  1.000000e+000
    outer loop
      vertex -5.000000e+001 -7.500000e+001  1.250000e+002
      vertex  5.000000e+001 -7.500000e+001  1.250000e+002
      vertex -5.000000e+001  7.500000e+001  1.250000e+002
    endloop
  endfacet
  facet normal  -0.000000e+000  0.000000e+000  1.000000e+000
    outer loop
      vertex -5.000000e+001  7.500000e+001  1.250000e+002
      vertex  5.000000e+001 -7.500000e+001  1.250000e+002
      vertex  5.000000e+001  7.500000e+001  1.250000e+002
    endloop
  endfacet
  facet normal  0.000000e+000  0.000000e+000 -1.000000e+000
    outer loop
      vertex  5.000000e+001 -7.500000e+001  0.000000e+000
      vertex -5.000000e+001 -7.500000e+001  0.000000e+000
      vertex  5.000000e+001  7.500000e+001  0.000000e+000
    endloop
  endfacet
  facet normal  -0.000000e+000  0.000000e+000 -1.000000e+000
    outer loop
      vertex  5.000000e+001  7.500000e+001  0.000000e+000
      vertex -5.000000e+001 -7.500000e+001  0.000000e+000
      vertex -5.000000e+001  7.500000e+001  0.000000e+000
    endloop
  endfacet
  facet normal  1.000000e+000  0.000000e+000  0.000000e+000
    outer loop
      vertex  5.000000e+001  7.500000e+001  0.000000e+000
      vertex  5.000000e+001  7.500000e+001  1.250000e+002
      vertex  5.000000e+001 -7.500000e+001  0.000000e+000
    endloop
  endfacet
  facet normal  1.000000e+000  0.000000e+000  0.000000e+000
    outer loop
      vertex  5.000000e+001 -7.500000e+001  0.000000e+000
      vertex  5.000000e+001  7.500000e+001  1.250000e+002
      vertex  5.000000e+001 -7.500000e+001  1.250000e+002
    endloop
  endfacet
  facet normal  0.000000e+000 -1.000000e+000  0.000000e+000
    outer loop
      vertex -5.000000e+001 -7.500000e+001  0.000000e+000
      vertex  5.000000e+001 -7.500000e+001  0.000000e+000
      vertex -5.000000e+001 -7.500000e+001  1.250000e+002
    endloop
  endfacet
  facet normal  0.000000e+000 -1.000000e+000  0.000000e+000
    outer loop
      vertex -5.000000e+001 -7.500000e+001  1.250000e+002
      vertex  5.000000e+001 -7.500000e+001  0.000000e+000
      vertex  5.000000e+001 -7.500000e+001  1.250000e+002
    endloop
  endfacet
  facet normal -1.000000e+000  0.000000e+000  0.000000e+000
    outer loop
      vertex -5.000000e+001 -7.500000e+001  0.000000e+000
      vertex -5.000000e+001 -7.500000e+001  1.250000e+002
      vertex -5.000000e+001  7.500000e+001  0.000000e+000
    endloop
  endfacet
  facet normal -1.000000e+000  0.000000e+000  0.000000e+000
    outer loop
      vertex -5.000000e+001  7.500000e+001  0.000000e+000
      vertex -5.000000e+001 -7.500000e+001  1.250000e+002
      vertex -5.000000e+001  7.500000e+001  1.250000e+002
    endloop
  endfacet
  facet normal  0.000000e+000  1.000000e+000  0.000000e+000
    outer loop
      vertex  5.000000e+001  7.500000e+001  0.000000e+000
      vertex -5.000000e+001  7.500000e+001  0.000000e+000
      vertex  5.000000e+001  7.500000e+001  1.250000e+002
    endloop
  endfacet
  facet normal  0.000000e+000  1.000000e+000  0.000000e+000
    outer loop
      vertex  5.000000e+001  7.500000e+001  1.250000e+002
      vertex -5.000000e+001  7.500000e+001  0.000000e+000
      vertex -5.000000e+001  7.500000e+001  1.250000e+002
    endloop
  endfacet
endsolid CATIA STL
